#!OML:ASF F:\VICON\USERDATA\INSTALL\rory3\rory3.ASF
:FULLY-SPECIFIED
:DEGREES
193
root 11.8876 17.7569 -11.9356 -55.6624 88.3788 -53.3695
lowerback 13.4292 -0.180811 -2.70662
upperback 1.85909 -0.515843 0.607341
thorax -5.53785 -0.158629 2.25927
lowerneck -12.3836 -9.28603 -13.8977
upperneck 32.925 -13.7524 13.837
head 15.8079 -5.58528 5.95232
rclavicle -1.0461e-014 -3.18055e-015
rhumerus -37.6582 -22.8263 -74.5215
rradius 32.7266
rwrist 10.6134
rhand -13.8469 10.7711
rfingers 7.12502
rthumb 12.2767 -18.8485
lclavicle -1.0461e-014 -3.18055e-015
lhumerus -27.7402 8.16589 81.2911
lradius 25.9485
lwrist -9.51368
lhand -17.4031 26.2981
lfingers 7.12502
lthumb 8.84634 56.0927
rfemur -15.9324 -7.39509 16.3889
rtibia 46.206
rfoot -16.4836 -8.14951
rtoes 12.5364
lfemur -7.3137 -6.4136 -16.0547
ltibia 28.1963
lfoot -15.7273 -6.11438
ltoes -6.98998
194
root 11.8931 17.7684 -11.8801 -54.988 88.4241 -52.8282
lowerback 13.1933 -0.19627 -2.78276
upperback 1.83131 -0.535162 0.746949
thorax -5.43358 -0.167864 2.45049
lowerneck -12.3984 -9.28444 -13.9963
upperneck 32.9662 -13.6901 13.7371
head 15.8175 -5.58226 5.93889
rclavicle -1.20762e-014 1.98785e-015
rhumerus -37.707 -22.8302 -74.2443
rradius 32.353
rwrist 10.9314
rhand -13.892 10.692
rfingers 7.12502
rthumb 12.2333 -18.9302
lclavicle -1.20762e-014 1.98785e-015
lhumerus -27.6794 8.19025 81.5938
lradius 26.3153
lwrist -9.00155
lhand -17.3984 26.1485
lfingers 7.12502
lthumb 8.85086 55.9429
rfemur -15.6798 -6.93941 15.6067
rtibia 45.5615
rfoot -15.3879 -9.5103
rtoes 16.3711
lfemur -7.23889 -6.63477 -15.9055
ltibia 27.85
lfoot -15.567 -5.99282
ltoes -6.98579
195
root 11.8951 17.7732 -11.8195 -55.8142 88.3917 -53.6624
lowerback 13.1453 -0.22452 -2.67209
upperback 1.80452 -0.554122 0.793994
thorax -5.43488 -0.179123 2.44037
lowerneck -12.3427 -9.27672 -13.8108
upperneck 32.9447 -13.6696 13.5573
head 15.7494 -5.57347 5.82725
rclavicle -2.18663e-015 1.07344e-014
rhumerus -37.8713 -23.0478 -74.06
rradius 31.9804
rwrist 11.2157
rhand -14.0637 10.427
rfingers 7.12502
rthumb 12.0677 -19.205
lclavicle -2.18663e-015 1.07344e-014
lhumerus -27.6525 7.63044 81.8062
lradius 26.7264
lwrist -8.2036
lhand -17.4394 26.3763
lfingers 7.12502
lthumb 8.81133 56.1724
rfemur -15.3144 -6.56345 14.8905
rtibia 44.9167
rfoot -14.5586 -10.6988
rtoes 18.6101
lfemur -7.05243 -6.88704 -15.6591
ltibia 27.5122
lfoot -15.429 -5.80576
ltoes -7.01807
196
root 11.8973 17.7775 -11.756 -56.0045 88.3596 -53.8897
lowerback 13.0547 -0.165995 -2.66727
upperback 1.78881 -0.467877 0.907783
thorax -5.40574 -0.136533 2.54165
lowerneck -12.2417 -9.33379 -13.7691
upperneck 32.8041 -13.7134 13.4025
head 15.6427 -5.61236 5.73201
rclavicle -6.34869e-015 -3.97569e-015
rhumerus -37.97 -23.0339 -73.8002
rradius 31.6197
rwrist 10.7427
rhand -14.558 10.0082
rfingers 7.12502
rthumb 11.591 -19.6513
lclavicle -6.34869e-015 -3.97569e-015
lhumerus -27.5398 6.52491 82.2662
lradius 27.0816
lwrist -7.16034
lhand -17.4531 26.4295
lfingers 7.12502
lthumb 8.79814 56.2261
rfemur -14.9536 -6.0889 14.1709
rtibia 44.2347
rfoot -14.0841 -11.7798
rtoes 19.6179
lfemur -6.91042 -6.98894 -15.3902
ltibia 27.1896
lfoot -15.3243 -5.75557
ltoes -6.92315
197
root 11.8985 17.7803 -11.6869 -57.2425 88.3157 -55.089
lowerback 13.0281 -0.11572 -2.72004
upperback 1.80597 -0.39831 1.05732
thorax -5.37576 -0.10036 2.71678
lowerneck -12.2181 -9.36078 -13.9202
upperneck 32.7842 -13.7231 13.4317
head 15.6481 -5.63287 5.7692
rclavicle 1.88845e-015 6.95746e-016
rhumerus -38.024 -22.9374 -73.5116
rradius 31.3056
rwrist 10.2844
rhand -14.7027 9.75788
rfingers 7.12502
rthumb 11.4515 -19.9094
lclavicle 1.88845e-015 6.95746e-016
lhumerus -27.4455 6.06383 82.6056
lradius 27.4625
lwrist -6.74433
lhand -17.3183 26.2145
lfingers 7.12502
lthumb 8.92818 56.0056
rfemur -14.4364 -5.41573 13.4998
rtibia 43.4983
rfoot -14.1037 -12.4784
rtoes 19.8963
lfemur -6.71354 -6.97877 -15.0729
ltibia 26.8842
lfoot -15.2725 -5.75705
ltoes -7.54369
198
root 11.9004 17.7798 -11.6155 -57.0686 88.3017 -54.8347
lowerback 13.0494 -0.0659173 -2.76394
upperback 1.81692 -0.33378 1.13315
thorax -5.37953 -0.0668523 2.81069
lowerneck -12.1584 -9.32029 -13.976
upperneck 32.7737 -13.6965 13.578
head 15.6455 -5.61134 5.85336
rclavicle -1.42069e-014 1.73937e-015
rhumerus -38.2983 -23.2938 -73.1337
rradius 31.1056
rwrist 10.228
rhand -14.5581 9.87228
rfingers 7.12502
rthumb 11.5909 -19.7872
lclavicle -1.42069e-014 1.73937e-015
lhumerus -27.4264 5.80117 82.7808
lradius 27.9085
lwrist -6.69837
lhand -17.0274 25.9968
lfingers 7.12502
lthumb 9.2089 55.7757
rfemur -13.8528 -4.77184 12.7754
rtibia 42.6993
rfoot -14.1436 -12.8498
rtoes 19.0819
lfemur -6.46059 -7.03727 -14.8367
ltibia 26.5791
lfoot -15.1985 -5.61452
ltoes -8.61446
199
root 11.9036 17.7783 -11.5474 -55.7752 88.4077 -53.5643
lowerback 12.9679 -0.0374797 -2.83539
upperback 1.77341 -0.305676 1.1437
thorax -5.38184 -0.0517423 2.857
lowerneck -12.0268 -9.47543 -14.2436
upperneck 32.7181 -13.9467 13.7972
head 15.6922 -5.7307 5.94947
rclavicle 8.45456e-015 -1.39149e-015
rhumerus -38.6938 -23.701 -72.7726
rradius 30.9339
rwrist 10.2751
rhand -14.8273 10.0304
rfingers 7.12502
rthumb 11.3313 -19.6435
lclavicle 8.45456e-015 -1.39149e-015
lhumerus -27.5057 4.88859 83.0378
lradius 28.5041
lwrist -6.01948
lhand -16.8026 25.9943
lfingers 7.12502
lthumb 9.42579 55.7635
rfemur -13.3758 -4.27057 11.8876
rtibia 41.8481
rfoot -13.9497 -12.9855
rtoes 18.3306
lfemur -6.33099 -7.13843 -14.739
ltibia 26.2882
lfoot -15.1822 -5.36452
ltoes -10.2721
200
root 11.9073 17.7798 -11.4787 -56.9184 88.4698 -54.7523
lowerback 12.8652 -0.0588152 -2.80196
upperback 1.7551 -0.325903 1.17629
thorax -5.343 -0.0629876 2.87493
lowerneck -12.1503 -9.58347 -14.3291
upperneck 32.8029 -14.0838 13.7893
head 15.8015 -5.79394 5.93488
rclavicle -7.81783e-015 -7.1811e-015
rhumerus -38.8447 -23.7957 -72.6033
rradius 30.5955
rwrist 10.0518
rhand -15.5405 10.0183
rfingers 7.12502
rthumb 10.6434 -19.6921
lclavicle -7.81783e-015 -7.1811e-015
lhumerus -27.5742 4.06977 83.2675
lradius 29.1235
lwrist -5.34823
lhand -17.0741 25.8728
lfingers 7.12502
lthumb 9.16383 55.6536
rfemur -12.8782 -3.7331 11.085
rtibia 40.9355
rfoot -13.524 -13.0509
rtoes 18.344
lfemur -6.23062 -7.33426 -14.5457
ltibia 26.0256
lfoot -15.1148 -5.17027
ltoes -10.9878
201
root 11.9102 17.783 -11.4068 -56.9481 88.4625 -54.7801
lowerback 12.759 -0.0697677 -2.7571
upperback 1.79505 -0.327064 1.23473
thorax -5.24184 -0.0659309 2.90973
lowerneck -12.5096 -9.71961 -14.401
upperneck 33.0582 -14.2152 13.6547
head 16.0365 -5.85595 5.86529
rclavicle 3.32964e-015 4.19001e-015
rhumerus -38.8151 -23.7585 -72.5143
rradius 30.2292
rwrist 9.56795
rhand -16.0074 9.77288
rfingers 7.12502
rthumb 10.193 -19.9602
lclavicle 3.32964e-015 4.19001e-015
lhumerus -27.5631 3.69521 83.417
lradius 29.6885
lwrist -5.20461
lhand -17.3026 25.886
lfingers 7.12502
lthumb 8.94338 55.6765
rfemur -12.3052 -3.00391 10.3604
rtibia 39.9944
rfoot -12.9717 -13.0485
rtoes 19.3213
lfemur -6.0616 -7.55226 -14.2919
ltibia 25.7521
lfoot -14.9764 -5.08101
ltoes -10.4669
202
root 11.9126 17.7855 -11.3328 -58.7538 88.4025 -56.6012
lowerback 12.6137 -0.0906689 -2.68793
upperback 1.85419 -0.334522 1.33239
thorax -5.09841 -0.0728416 2.97243
lowerneck -12.7212 -9.73228 -14.3954
upperneck 33.0742 -14.2095 13.6247
head 16.0902 -5.84885 5.84602
rclavicle -1.95368e-015 -4.05024e-015
rhumerus -38.7743 -23.9181 -72.2915
rradius 29.9219
rwrist 9.21543
rhand -16.2873 9.50909
rfingers 7.12502
rthumb 9.92297 -20.237
lclavicle -1.95368e-015 -4.05024e-015
lhumerus -27.4755 3.37616 83.5885
lradius 30.2071
lwrist -4.98114
lhand -17.4027 26.0609
lfingers 7.12502
lthumb 8.84673 55.8555
rfemur -11.7244 -2.36952 9.74122
rtibia 38.9968
rfoot -12.3798 -12.8331
rtoes 21.1215
lfemur -5.91866 -7.80682 -13.9498
ltibia 25.4647
lfoot -14.7947 -5.00282
ltoes -9.5845
203
root 11.915 17.7865 -11.254 -57.1358 88.4779 -54.9948
lowerback 12.5297 -0.0783581 -2.87615
upperback 1.83637 -0.337867 1.41755
thorax -5.06865 -0.0710703 3.16882
lowerneck -12.5759 -9.62743 -14.1941
upperneck 32.887 -14.072 13.5379
head 15.8991 -5.78458 5.79034
rclavicle -3.66509e-016 5.81445e-015
rhumerus -38.9544 -24.037 -71.9859
rradius 29.7307
rwrist 9.01175
rhand -16.5382 9.26482
rfingers 7.12502
rthumb 9.68088 -20.4927
lclavicle -3.66509e-016 5.81445e-015
lhumerus -27.4686 3.1741 83.7538
lradius 30.6199
lwrist -4.86735
lhand -17.1521 25.8699
lfingers 7.12502
lthumb 9.08858 55.6541
rfemur -11.1648 -1.87673 8.99589
rtibia 37.9877
rfoot -11.337 -12.7624
rtoes 21.7422
lfemur -5.73074 -8.10947 -13.7922
ltibia 25.1513
lfoot -14.6309 -4.79379
ltoes -9.17699
204
root 11.9192 17.7903 -11.1718 -59.3449 88.4012 -57.1798
lowerback 12.4537 -0.0835026 -2.81899
upperback 1.84679 -0.33054 1.4937
thorax -5.01609 -0.068901 3.21442
lowerneck -12.4988 -9.61366 -13.7843
upperneck 32.7556 -14.0575 13.2429
head 15.734 -5.76749 5.57919
rclavicle -5.03174e-016 -2.48481e-016
rhumerus -39.0606 -24.0287 -71.876
rradius 29.5394
rwrist 8.59554
rhand -16.5056 9.22135
rfingers 7.12502
rthumb 9.71241 -20.5347
lclavicle -5.03174e-016 -2.48481e-016
lhumerus -27.4204 3.04606 83.7974
lradius 30.9849
lwrist -4.98275
lhand -16.8803 25.7213
lfingers 7.12502
lthumb 9.35087 55.4939
rfemur -10.5708 -1.0957 8.5237
rtibia 36.9781
rfoot -9.99508 -13.0592
rtoes 22.0073
lfemur -5.49573 -8.3634 -13.42
ltibia 24.828
lfoot -14.4957 -4.62756
ltoes -8.84817
